<svg width="28" height="19" viewBox="0 0 28 19" fill="none" xmlns="http://www.w3.org/2000/svg">
<path d="M9.98485 18.3471L0.71374 9.08485C0.568116 8.91481 0.492022 8.69607 0.500663 8.47236C0.509304 8.24865 0.602044 8.03643 0.76035 7.87813C0.918656 7.71982 1.13087 7.62708 1.35458 7.61844C1.57829 7.6098 1.79703 7.68589 1.96707 7.83152L9.96707 15.8315L25.6026 0.21374C25.7727 0.0681162 25.9914 -0.00797811 26.2151 0.000662917C26.4388 0.00930394 26.651 0.102044 26.8094 0.26035C26.9677 0.418656 27.0604 0.630869 27.069 0.854581C27.0777 1.07829 27.0016 1.29703 26.856 1.46707L9.98485 18.3471Z" fill="#1ED500"/>
</svg>
