<svg width="18" height="18" viewBox="0 0 18 18" fill="none" xmlns="http://www.w3.org/2000/svg">
<path d="M10.2381 8.89253L17.607 1.52364C17.7526 1.35359 17.8287 1.13486 17.8201 0.911145C17.8114 0.687433 17.7187 0.475221 17.5604 0.316914C17.4021 0.158608 17.1899 0.0658678 16.9662 0.0572268C16.7425 0.0485858 16.5237 0.12468 16.3537 0.270304L8.98479 7.63919L1.6159 0.261415C1.44852 0.0940338 1.2215 0 0.984785 0C0.748073 0 0.521055 0.0940338 0.353674 0.261415C0.186293 0.428796 0.0922592 0.655813 0.0922592 0.892526C0.0922592 1.12924 0.186293 1.35626 0.353674 1.52364L7.73145 8.89253L0.353674 16.2614C0.260624 16.3411 0.18505 16.4392 0.131696 16.5494C0.0783419 16.6597 0.0483596 16.7798 0.0436311 16.9023C0.0389027 17.0247 0.0595298 17.1467 0.104218 17.2608C0.148907 17.3749 0.216692 17.4785 0.303318 17.5651C0.389945 17.6517 0.493542 17.7195 0.607609 17.7642C0.721676 17.8089 0.843749 17.8295 0.966166 17.8248C1.08858 17.8201 1.2087 17.7901 1.31898 17.7367C1.42926 17.6834 1.52732 17.6078 1.60701 17.5147L8.98479 10.1459L16.3537 17.5147C16.5237 17.6604 16.7425 17.7365 16.9662 17.7278C17.1899 17.7192 17.4021 17.6264 17.5604 17.4681C17.7187 17.3098 17.8114 17.0976 17.8201 16.8739C17.8287 16.6502 17.7526 16.4315 17.607 16.2614L10.2381 8.89253Z" fill="#DA2228"/>
</svg>
